<mxfile host="app.diagrams.net" modified="2021-10-27T07:03:04.447Z" agent="5.0 (Macintosh; Intel Mac OS X 10_15_7) AppleWebKit/537.36 (KHTML, like Gecko) Chrome/95.0.4638.54 Safari/537.36" etag="w4YzIR36icFlLKTWDi6d" version="15.5.9" type="github">
  <diagram name="Page-1" id="c9db0220-8083-56f3-ca83-edcdcd058819">
    <mxGraphModel dx="1298" dy="866" grid="1" gridSize="10" guides="1" tooltips="1" connect="1" arrows="1" fold="1" page="1" pageScale="1.5" pageWidth="826" pageHeight="1169" background="#283618" math="0" shadow="0">
      <root>
        <mxCell id="0" style=";html=1;" />
        <mxCell id="1" style=";html=1;" parent="0" />
        <mxCell id="s-Uha1hxMYhQp53tiC_8-4" style="edgeStyle=orthogonalEdgeStyle;orthogonalLoop=1;jettySize=auto;html=1;exitX=0.5;exitY=1;exitDx=0;exitDy=0;labelBackgroundColor=#283618;strokeColor=#DDA15E;fontColor=#FEFAE0;sketch=1;curved=1;" edge="1" parent="1" source="s-Uha1hxMYhQp53tiC_8-1">
          <mxGeometry relative="1" as="geometry">
            <mxPoint x="368.96" y="220" as="targetPoint" />
          </mxGeometry>
        </mxCell>
        <mxCell id="s-Uha1hxMYhQp53tiC_8-1" value="Nginx" style="whiteSpace=wrap;html=1;fillColor=#BC6C25;strokeColor=#DDA15E;fontColor=#FEFAE0;sketch=1;rounded=1;" vertex="1" parent="1">
          <mxGeometry x="308.96" y="60" width="120" height="60" as="geometry" />
        </mxCell>
        <mxCell id="s-Uha1hxMYhQp53tiC_8-7" style="edgeStyle=orthogonalEdgeStyle;orthogonalLoop=1;jettySize=auto;html=1;exitX=0.5;exitY=1;exitDx=0;exitDy=0;entryX=0.5;entryY=0;entryDx=0;entryDy=0;labelBackgroundColor=#283618;strokeColor=#DDA15E;fontColor=#FEFAE0;sketch=1;curved=1;" edge="1" parent="1" source="s-Uha1hxMYhQp53tiC_8-2" target="s-Uha1hxMYhQp53tiC_8-6">
          <mxGeometry relative="1" as="geometry" />
        </mxCell>
        <mxCell id="s-Uha1hxMYhQp53tiC_8-2" value="Nginx" style="whiteSpace=wrap;html=1;fillColor=#BC6C25;strokeColor=#DDA15E;fontColor=#FEFAE0;sketch=1;rounded=1;" vertex="1" parent="1">
          <mxGeometry x="528.96" y="60" width="120" height="60" as="geometry" />
        </mxCell>
        <mxCell id="s-Uha1hxMYhQp53tiC_8-5" value="Gateway" style="whiteSpace=wrap;html=1;fillColor=#BC6C25;strokeColor=#DDA15E;fontColor=#FEFAE0;sketch=1;rounded=1;" vertex="1" parent="1">
          <mxGeometry x="308.96" y="220" width="120" height="60" as="geometry" />
        </mxCell>
        <mxCell id="s-Uha1hxMYhQp53tiC_8-6" value="Gateway" style="whiteSpace=wrap;html=1;fillColor=#BC6C25;strokeColor=#DDA15E;fontColor=#FEFAE0;sketch=1;rounded=1;" vertex="1" parent="1">
          <mxGeometry x="528.96" y="220" width="120" height="60" as="geometry" />
        </mxCell>
        <mxCell id="s-Uha1hxMYhQp53tiC_8-8" value="MicroApplication1" style="ellipse;whiteSpace=wrap;html=1;fillColor=#BC6C25;strokeColor=#DDA15E;fontColor=#FEFAE0;sketch=1;rounded=1;" vertex="1" parent="1">
          <mxGeometry x="198.96" y="370" width="120" height="80" as="geometry" />
        </mxCell>
        <mxCell id="s-Uha1hxMYhQp53tiC_8-9" value="MicroApplication2" style="ellipse;whiteSpace=wrap;html=1;fillColor=#BC6C25;strokeColor=#DDA15E;fontColor=#FEFAE0;sketch=1;rounded=1;" vertex="1" parent="1">
          <mxGeometry x="388.96" y="370" width="120" height="80" as="geometry" />
        </mxCell>
        <mxCell id="s-Uha1hxMYhQp53tiC_8-10" value="MicroApplication3" style="ellipse;whiteSpace=wrap;html=1;fillColor=#BC6C25;strokeColor=#DDA15E;fontColor=#FEFAE0;sketch=1;rounded=1;" vertex="1" parent="1">
          <mxGeometry x="598.96" y="370" width="120" height="80" as="geometry" />
        </mxCell>
        <mxCell id="s-Uha1hxMYhQp53tiC_8-16" value="" style="endArrow=none;html=1;exitX=0.642;exitY=-0.012;exitDx=0;exitDy=0;exitPerimeter=0;labelBackgroundColor=#283618;strokeColor=#DDA15E;fontColor=#FEFAE0;sketch=1;curved=1;" edge="1" parent="1" source="s-Uha1hxMYhQp53tiC_8-8">
          <mxGeometry width="50" height="50" relative="1" as="geometry">
            <mxPoint x="318.96" y="330" as="sourcePoint" />
            <mxPoint x="368.96" y="280" as="targetPoint" />
          </mxGeometry>
        </mxCell>
        <mxCell id="s-Uha1hxMYhQp53tiC_8-17" value="" style="endArrow=none;html=1;exitX=0.675;exitY=0;exitDx=0;exitDy=0;exitPerimeter=0;labelBackgroundColor=#283618;strokeColor=#DDA15E;fontColor=#FEFAE0;sketch=1;curved=1;" edge="1" parent="1" source="s-Uha1hxMYhQp53tiC_8-8">
          <mxGeometry width="50" height="50" relative="1" as="geometry">
            <mxPoint x="488.96" y="330" as="sourcePoint" />
            <mxPoint x="538.96" y="280" as="targetPoint" />
          </mxGeometry>
        </mxCell>
        <mxCell id="s-Uha1hxMYhQp53tiC_8-18" value="" style="endArrow=none;html=1;exitX=0.5;exitY=0;exitDx=0;exitDy=0;labelBackgroundColor=#283618;strokeColor=#DDA15E;fontColor=#FEFAE0;sketch=1;curved=1;" edge="1" parent="1" source="s-Uha1hxMYhQp53tiC_8-9">
          <mxGeometry width="50" height="50" relative="1" as="geometry">
            <mxPoint x="368.96" y="330" as="sourcePoint" />
            <mxPoint x="418.96" y="280" as="targetPoint" />
          </mxGeometry>
        </mxCell>
        <mxCell id="s-Uha1hxMYhQp53tiC_8-20" value="" style="endArrow=none;html=1;exitX=0.5;exitY=0;exitDx=0;exitDy=0;labelBackgroundColor=#283618;strokeColor=#DDA15E;fontColor=#FEFAE0;sketch=1;curved=1;" edge="1" parent="1" source="s-Uha1hxMYhQp53tiC_8-10">
          <mxGeometry width="50" height="50" relative="1" as="geometry">
            <mxPoint x="358.96" y="330" as="sourcePoint" />
            <mxPoint x="408.96" y="280" as="targetPoint" />
          </mxGeometry>
        </mxCell>
        <mxCell id="s-Uha1hxMYhQp53tiC_8-21" value="" style="endArrow=none;html=1;exitX=0.5;exitY=0;exitDx=0;exitDy=0;labelBackgroundColor=#283618;strokeColor=#DDA15E;fontColor=#FEFAE0;sketch=1;curved=1;" edge="1" parent="1" source="s-Uha1hxMYhQp53tiC_8-9">
          <mxGeometry width="50" height="50" relative="1" as="geometry">
            <mxPoint x="458.96" y="360" as="sourcePoint" />
            <mxPoint x="588.96" y="280" as="targetPoint" />
          </mxGeometry>
        </mxCell>
        <mxCell id="s-Uha1hxMYhQp53tiC_8-22" value="" style="endArrow=none;html=1;labelBackgroundColor=#283618;strokeColor=#DDA15E;fontColor=#FEFAE0;sketch=1;curved=1;" edge="1" parent="1">
          <mxGeometry width="50" height="50" relative="1" as="geometry">
            <mxPoint x="658.96" y="370" as="sourcePoint" />
            <mxPoint x="638.96" y="280" as="targetPoint" />
          </mxGeometry>
        </mxCell>
        <mxCell id="s-Uha1hxMYhQp53tiC_8-23" value="MicroService1" style="ellipse;whiteSpace=wrap;html=1;aspect=fixed;fillColor=#BC6C25;strokeColor=#DDA15E;fontColor=#FEFAE0;sketch=1;rounded=1;" vertex="1" parent="1">
          <mxGeometry x="130" y="510" width="80" height="80" as="geometry" />
        </mxCell>
        <mxCell id="s-Uha1hxMYhQp53tiC_8-24" value="MicroService2" style="ellipse;whiteSpace=wrap;html=1;aspect=fixed;fillColor=#BC6C25;strokeColor=#DDA15E;fontColor=#FEFAE0;sketch=1;rounded=1;" vertex="1" parent="1">
          <mxGeometry x="318.96" y="510" width="80" height="80" as="geometry" />
        </mxCell>
        <mxCell id="s-Uha1hxMYhQp53tiC_8-25" value="MicroService3" style="ellipse;whiteSpace=wrap;html=1;aspect=fixed;fillColor=#BC6C25;strokeColor=#DDA15E;fontColor=#FEFAE0;sketch=1;rounded=1;" vertex="1" parent="1">
          <mxGeometry x="518.96" y="520" width="80" height="80" as="geometry" />
        </mxCell>
        <mxCell id="s-Uha1hxMYhQp53tiC_8-26" value="MicroService4" style="ellipse;whiteSpace=wrap;html=1;aspect=fixed;fillColor=#BC6C25;strokeColor=#DDA15E;fontColor=#FEFAE0;sketch=1;rounded=1;" vertex="1" parent="1">
          <mxGeometry x="698.96" y="520" width="80" height="80" as="geometry" />
        </mxCell>
        <mxCell id="s-Uha1hxMYhQp53tiC_8-27" value="" style="endArrow=none;html=1;exitX=0.638;exitY=-0.025;exitDx=0;exitDy=0;exitPerimeter=0;labelBackgroundColor=#283618;strokeColor=#DDA15E;fontColor=#FEFAE0;sketch=1;curved=1;" edge="1" parent="1">
          <mxGeometry width="50" height="50" relative="1" as="geometry">
            <mxPoint x="179.99999999999997" y="508" as="sourcePoint" />
            <mxPoint x="238.96" y="450" as="targetPoint" />
          </mxGeometry>
        </mxCell>
        <mxCell id="s-Uha1hxMYhQp53tiC_8-28" value="" style="endArrow=none;html=1;exitX=0.65;exitY=0.013;exitDx=0;exitDy=0;exitPerimeter=0;labelBackgroundColor=#283618;strokeColor=#DDA15E;fontColor=#FEFAE0;sketch=1;curved=1;" edge="1" parent="1" source="s-Uha1hxMYhQp53tiC_8-25">
          <mxGeometry width="50" height="50" relative="1" as="geometry">
            <mxPoint x="598.96" y="500" as="sourcePoint" />
            <mxPoint x="648.96" y="450" as="targetPoint" />
          </mxGeometry>
        </mxCell>
        <mxCell id="s-Uha1hxMYhQp53tiC_8-29" value="" style="endArrow=none;html=1;exitX=0.363;exitY=-0.025;exitDx=0;exitDy=0;exitPerimeter=0;labelBackgroundColor=#283618;strokeColor=#DDA15E;fontColor=#FEFAE0;sketch=1;curved=1;" edge="1" parent="1" source="s-Uha1hxMYhQp53tiC_8-26">
          <mxGeometry width="50" height="50" relative="1" as="geometry">
            <mxPoint x="588.96" y="520" as="sourcePoint" />
            <mxPoint x="666.96" y="448.96000000000004" as="targetPoint" />
          </mxGeometry>
        </mxCell>
        <mxCell id="s-Uha1hxMYhQp53tiC_8-32" value="" style="endArrow=none;html=1;labelBackgroundColor=#283618;strokeColor=#DDA15E;fontColor=#FEFAE0;sketch=1;curved=1;" edge="1" parent="1" source="s-Uha1hxMYhQp53tiC_8-24">
          <mxGeometry width="50" height="50" relative="1" as="geometry">
            <mxPoint x="548.96" y="460" as="sourcePoint" />
            <mxPoint x="598.96" y="410" as="targetPoint" />
          </mxGeometry>
        </mxCell>
        <mxCell id="s-Uha1hxMYhQp53tiC_8-33" value="" style="endArrow=none;html=1;exitX=1;exitY=0;exitDx=0;exitDy=0;labelBackgroundColor=#283618;strokeColor=#DDA15E;fontColor=#FEFAE0;sketch=1;curved=1;" edge="1" parent="1">
          <mxGeometry width="50" height="50" relative="1" as="geometry">
            <mxPoint x="197.24427124746214" y="521.7157287525379" as="sourcePoint" />
            <mxPoint x="598.96" y="420" as="targetPoint" />
          </mxGeometry>
        </mxCell>
        <mxCell id="s-Uha1hxMYhQp53tiC_8-34" value="" style="endArrow=none;html=1;labelBackgroundColor=#283618;strokeColor=#DDA15E;fontColor=#FEFAE0;sketch=1;curved=1;" edge="1" parent="1" source="s-Uha1hxMYhQp53tiC_8-26">
          <mxGeometry width="50" height="50" relative="1" as="geometry">
            <mxPoint x="408.96" y="500" as="sourcePoint" />
            <mxPoint x="458.96" y="450" as="targetPoint" />
          </mxGeometry>
        </mxCell>
        <mxCell id="s-Uha1hxMYhQp53tiC_8-35" value="" style="endArrow=none;html=1;labelBackgroundColor=#283618;strokeColor=#DDA15E;fontColor=#FEFAE0;sketch=1;curved=1;" edge="1" parent="1" source="s-Uha1hxMYhQp53tiC_8-25">
          <mxGeometry width="50" height="50" relative="1" as="geometry">
            <mxPoint x="671.7299402623917" y="545.3739051030825" as="sourcePoint" />
            <mxPoint x="428.96" y="450" as="targetPoint" />
          </mxGeometry>
        </mxCell>
        <mxCell id="s-Uha1hxMYhQp53tiC_8-37" value="" style="endArrow=none;html=1;exitX=0.7;exitY=0.05;exitDx=0;exitDy=0;exitPerimeter=0;labelBackgroundColor=#283618;strokeColor=#DDA15E;fontColor=#FEFAE0;sketch=1;curved=1;" edge="1" parent="1" source="s-Uha1hxMYhQp53tiC_8-24">
          <mxGeometry width="50" height="50" relative="1" as="geometry">
            <mxPoint x="378.96" y="500" as="sourcePoint" />
            <mxPoint x="428.96" y="450" as="targetPoint" />
          </mxGeometry>
        </mxCell>
        <mxCell id="s-Uha1hxMYhQp53tiC_8-38" value="" style="endArrow=none;html=1;labelBackgroundColor=#283618;strokeColor=#DDA15E;fontColor=#FEFAE0;sketch=1;curved=1;" edge="1" parent="1" source="s-Uha1hxMYhQp53tiC_8-24">
          <mxGeometry width="50" height="50" relative="1" as="geometry">
            <mxPoint x="248.96" y="504" as="sourcePoint" />
            <mxPoint x="302.96" y="440" as="targetPoint" />
          </mxGeometry>
        </mxCell>
        <mxCell id="s-Uha1hxMYhQp53tiC_8-39" value="Gateway 微网关，内置一个小后台网关,统一分发到微应用" style="text;html=1;strokeColor=none;fillColor=none;align=center;verticalAlign=middle;whiteSpace=wrap;fontColor=#FEFAE0;sketch=1;rounded=1;" vertex="1" parent="1">
          <mxGeometry x="658.96" y="235" width="551.04" height="30" as="geometry" />
        </mxCell>
        <mxCell id="s-Uha1hxMYhQp53tiC_8-40" value="Nginx 负载均衡,静态资源处理,反向代理服务器。搭建 Keepalive 实现Nginx 的高可用架构。" style="text;html=1;strokeColor=none;fillColor=none;align=center;verticalAlign=middle;whiteSpace=wrap;fontColor=#FEFAE0;sketch=1;rounded=1;" vertex="1" parent="1">
          <mxGeometry x="658.96" y="80" width="551.04" height="30" as="geometry" />
        </mxCell>
        <mxCell id="s-Uha1hxMYhQp53tiC_8-41" value="Nacos" style="shape=cylinder3;whiteSpace=wrap;html=1;boundedLbl=1;backgroundOutline=1;size=15;fillColor=#BC6C25;strokeColor=#DDA15E;fontColor=#FEFAE0;sketch=1;rounded=1;" vertex="1" parent="1">
          <mxGeometry x="70" y="140" width="60" height="80" as="geometry" />
        </mxCell>
        <mxCell id="s-Uha1hxMYhQp53tiC_8-43" value="Mysql" style="shape=cylinder3;whiteSpace=wrap;html=1;boundedLbl=1;backgroundOutline=1;size=15;fillColor=#BC6C25;strokeColor=#DDA15E;fontColor=#FEFAE0;sketch=1;rounded=1;" vertex="1" parent="1">
          <mxGeometry x="70" y="250" width="60" height="80" as="geometry" />
        </mxCell>
        <mxCell id="s-Uha1hxMYhQp53tiC_8-44" value="Redis" style="shape=cylinder3;whiteSpace=wrap;html=1;boundedLbl=1;backgroundOutline=1;size=15;fillColor=#BC6C25;strokeColor=#DDA15E;fontColor=#FEFAE0;sketch=1;rounded=1;" vertex="1" parent="1">
          <mxGeometry x="70" y="360" width="60" height="80" as="geometry" />
        </mxCell>
        <mxCell id="s-Uha1hxMYhQp53tiC_8-45" value="微应用层，每一个微应用独立部署，并注册到注册中心，同时可以远程调用到其他微应用提供的服务。&lt;br&gt;每个微应用可以继承 ACore 框架提供的基础组件实现鉴权，工作流，日志，文件上传等扩展功能。" style="text;html=1;strokeColor=none;fillColor=none;align=center;verticalAlign=middle;whiteSpace=wrap;fontColor=#FEFAE0;sketch=1;rounded=1;" vertex="1" parent="1">
          <mxGeometry x="730" y="395" width="491.04" height="55" as="geometry" />
        </mxCell>
        <mxCell id="s-Uha1hxMYhQp53tiC_8-46" value="微服务，每一个微应用也是一个微服务架构系统中的服务提供者。" style="text;html=1;strokeColor=none;fillColor=none;align=center;verticalAlign=middle;whiteSpace=wrap;fontColor=#FEFAE0;sketch=1;rounded=1;" vertex="1" parent="1">
          <mxGeometry x="778.96" y="541.25" width="490" height="37.5" as="geometry" />
        </mxCell>
        <mxCell id="s-Uha1hxMYhQp53tiC_8-47" value="" style="endArrow=none;html=1;exitX=1;exitY=0.5;exitDx=0;exitDy=0;exitPerimeter=0;labelBackgroundColor=#283618;strokeColor=#DDA15E;fontColor=#FEFAE0;sketch=1;curved=1;" edge="1" parent="1" source="s-Uha1hxMYhQp53tiC_8-44">
          <mxGeometry width="50" height="50" relative="1" as="geometry">
            <mxPoint x="160" y="435" as="sourcePoint" />
            <mxPoint x="210" y="385" as="targetPoint" />
          </mxGeometry>
        </mxCell>
        <mxCell id="s-Uha1hxMYhQp53tiC_8-49" value="" style="endArrow=none;html=1;entryX=0;entryY=0;entryDx=0;entryDy=0;labelBackgroundColor=#283618;strokeColor=#DDA15E;fontColor=#FEFAE0;sketch=1;curved=1;" edge="1" parent="1" target="s-Uha1hxMYhQp53tiC_8-8">
          <mxGeometry width="50" height="50" relative="1" as="geometry">
            <mxPoint x="130" y="190" as="sourcePoint" />
            <mxPoint x="180" y="140" as="targetPoint" />
          </mxGeometry>
        </mxCell>
        <mxCell id="s-Uha1hxMYhQp53tiC_8-50" value="" style="endArrow=none;html=1;entryX=0;entryY=0;entryDx=0;entryDy=0;labelBackgroundColor=#283618;strokeColor=#DDA15E;fontColor=#FEFAE0;sketch=1;curved=1;" edge="1" parent="1" target="s-Uha1hxMYhQp53tiC_8-8">
          <mxGeometry width="50" height="50" relative="1" as="geometry">
            <mxPoint x="130" y="300" as="sourcePoint" />
            <mxPoint x="180" y="250" as="targetPoint" />
          </mxGeometry>
        </mxCell>
        <mxCell id="s-Uha1hxMYhQp53tiC_8-53" value="" style="endArrow=none;html=1;rounded=1;sketch=1;fontColor=#FEFAE0;strokeColor=#DDA15E;fillColor=#BC6C25;curved=1;exitX=0.5;exitY=0;exitDx=0;exitDy=0;" edge="1" parent="1" source="s-Uha1hxMYhQp53tiC_8-8">
          <mxGeometry width="50" height="50" relative="1" as="geometry">
            <mxPoint x="268.96" y="170" as="sourcePoint" />
            <mxPoint x="318.96" y="120" as="targetPoint" />
          </mxGeometry>
        </mxCell>
        <mxCell id="s-Uha1hxMYhQp53tiC_8-54" value="" style="endArrow=none;html=1;rounded=1;sketch=1;fontColor=#FEFAE0;strokeColor=#DDA15E;fillColor=#BC6C25;curved=1;entryX=0.5;entryY=1;entryDx=0;entryDy=0;" edge="1" parent="1" target="s-Uha1hxMYhQp53tiC_8-2">
          <mxGeometry width="50" height="50" relative="1" as="geometry">
            <mxPoint x="320" y="390" as="sourcePoint" />
            <mxPoint x="540" y="130" as="targetPoint" />
          </mxGeometry>
        </mxCell>
        <mxCell id="s-Uha1hxMYhQp53tiC_8-57" value="" style="endArrow=none;html=1;rounded=1;sketch=1;fontColor=#FEFAE0;strokeColor=#DDA15E;fillColor=#BC6C25;curved=1;entryX=0.8;entryY=0.088;entryDx=0;entryDy=0;entryPerimeter=0;" edge="1" parent="1" target="s-Uha1hxMYhQp53tiC_8-9">
          <mxGeometry width="50" height="50" relative="1" as="geometry">
            <mxPoint x="428.96000000000004" y="120" as="sourcePoint" />
            <mxPoint x="478.96000000000004" y="70" as="targetPoint" />
          </mxGeometry>
        </mxCell>
        <mxCell id="s-Uha1hxMYhQp53tiC_8-58" value="" style="endArrow=none;html=1;rounded=1;sketch=1;fontColor=#FEFAE0;strokeColor=#DDA15E;fillColor=#BC6C25;curved=1;exitX=1.034;exitY=0.883;exitDx=0;exitDy=0;exitPerimeter=0;" edge="1" parent="1" source="s-Uha1hxMYhQp53tiC_8-1">
          <mxGeometry width="50" height="50" relative="1" as="geometry">
            <mxPoint x="550" y="447.5" as="sourcePoint" />
            <mxPoint x="600" y="397.5" as="targetPoint" />
          </mxGeometry>
        </mxCell>
        <mxCell id="s-Uha1hxMYhQp53tiC_8-59" value="" style="endArrow=none;html=1;rounded=1;sketch=1;fontColor=#FEFAE0;strokeColor=#DDA15E;fillColor=#BC6C25;curved=1;entryX=0.934;entryY=1.067;entryDx=0;entryDy=0;entryPerimeter=0;" edge="1" parent="1" target="s-Uha1hxMYhQp53tiC_8-2">
          <mxGeometry width="50" height="50" relative="1" as="geometry">
            <mxPoint x="680" y="370" as="sourcePoint" />
            <mxPoint x="730" y="320" as="targetPoint" />
          </mxGeometry>
        </mxCell>
      </root>
    </mxGraphModel>
  </diagram>
</mxfile>
